# xmcd
#
# Track frame offsets: 
#        150
#        10828
#        20868
#        33900
#        45415
#        56540
#        69610
#        81443
#        91305
#        103030
#        113748
#        124960
#        136143
#        145635
#        158438
#        173305
#        186425
#        196368
#        209068
#        220333
#        230320
#        241668
#        251848
#
# Disc length: 3545 seconds
#
# Revision: 3
# Processed by: cddbd v1.5.2PL0 Copyright (c) Steve Scherf et al.
# Submitted via: ExactAudioCopy v0.99pb3
#
DISCID=3c0dd717
DTITLE=Jerry "Boogie" McCain - That's What They Want: The Best Of Jerr
DTITLE=y McCain
DYEAR=1995
DGENRE=
TTITLE0=That's What They Want
TTITLE1=Courtin' In A Cadillac
TTITLE2=If It Wasn't For My Baby
TTITLE3=You Don't Love Me No More
TTITLE4=Run, Uncle John, Run!
TTITLE5=Things Ain't Right
TTITLE6=Tryin' To Please
TTITLE7=My Next Door Neighbor
TTITLE8=Listen, Young Girls
TTITLE9=Bad Credit
TTITLE10=The Jig's Up
TTITLE11=Groom Without A Bride
TTITLE12=A Cutie Named Judy
TTITLE13=Geronimo Rock and Roll
TTITLE14=It Must Be Love
TTITLE15=Rock and Roll Ball
TTITLE16=I Want Somebody To Love
TTITLE17=Turn Your Damper Down
TTITLE18=I'm A Ding Dong Daddy From A Rock and Roll City
TTITLE19=Choo Choo Rock
TTITLE20=Bell In My Heart
TTITLE21=My Next Door Neighbor
TTITLE22=Crying Like A Fool
EXTD=
EXTT0=
EXTT1=
EXTT2=
EXTT3=
EXTT4=
EXTT5=
EXTT6=
EXTT7=
EXTT8=
EXTT9=
EXTT10=
EXTT11=
EXTT12=
EXTT13=
EXTT14=
EXTT15=
EXTT16=
EXTT17=
EXTT18=
EXTT19=
EXTT20=
EXTT21=
EXTT22=
PLAYORDER=
